<?xml version="1.0" encoding="UTF-8" standalone="no"?>
<!-- Created with Inkscape (http://www.inkscape.org/) -->

<svg
   width="75mm"
   height="75mm"
   viewBox="0 0 75 75"
   version="1.1"
   id="svg1"
   xml:space="preserve"
   xmlns:inkscape="http://www.inkscape.org/namespaces/inkscape"
   xmlns:sodipodi="http://sodipodi.sourceforge.net/DTD/sodipodi-0.dtd"
   xmlns="http://www.w3.org/2000/svg"
   xmlns:svg="http://www.w3.org/2000/svg"><sodipodi:namedview
     id="namedview1"
     pagecolor="#ffffff"
     bordercolor="#666666"
     borderopacity="1.0"
     inkscape:showpageshadow="2"
     inkscape:pageopacity="0.0"
     inkscape:pagecheckerboard="0"
     inkscape:deskcolor="#d1d1d1"
     inkscape:document-units="mm"><inkscape:page
       x="0"
       y="1.1444091e-06"
       width="75"
       height="75"
       id="page2"
       margin="0"
       bleed="0" /></sodipodi:namedview><defs
     id="defs1" /><g
     inkscape:label="Layer 1"
     inkscape:groupmode="layer"
     id="layer1"
     transform="translate(0,-222)"><g
       id="g1"
       transform="matrix(0.26458333,0,0,0.26458333,28.046529,96.244387)"><path
         d="m 27.810852,498.25302 c -2.708,2.337 -14.018,12.544 -25.1319995,22.68 -18.6859995,17.043 -20.1839995,18.662 -19.9069995,21.5 l 0.3,3.07 14.5039996,0.5 c 13.3549994,0.46 14.6819994,0.678 16.7499994,2.75 1.59,1.592 3.428,2.25 6.291,2.25 5.537,0 8.955,-3.397 8.955,-8.899 0,-8.337 -8.19,-12.294 -15.01,-7.252 -2.513,1.858 -4.091,2.194 -9.1499995,1.948 l -6.11399992,-0.297 17.30899942,-15.75 c 9.521,-8.663 17.682,-15.75 18.138,-15.75 0.455,0 0.827,11.025 0.827,24.5 v 24.5 H 2.5318525 c -30.6810005,0 -33.3050005,0.138 -36.7500005,1.928 -3.625,1.884 -41.866,35.975 -43.571,38.843 -0.505,0.85 -0.411,2.434 0.229,3.838 1.084,2.38 1.162,2.391 17.561,2.391 12.792,0 16.65,0.302 17.271,1.354 1.967,3.329 8.506,4.677 12.45,2.566 2.625,-1.405 4.806,-6.699 4.158,-10.091 -1.295,-6.771 -10.569,-9.75 -15.61,-5.015 -2.183,2.05 -3.235,2.24 -10.969,1.977 l -8.555,-0.291 10.97,-10 c 6.034,-5.5 13.233,-11.912 15.998,-14.25 l 5.027,-4.25 H 3.1738525 35.605852 l -0.267,25.75 -0.267,25.75 -8.263,0.291 c -7.546,0.265 -8.553,0.07 -11.595,-2.25 -7.2439995,-5.526 -15.64199942,-1.907 -15.64199942,6.739 0,8.13699 7.45099992,11.93899 14.29399942,7.295 3.379,-2.293 4.777,-2.575 12.75,-2.575 h 8.956 v 12.49999 12.5 h -23.878 c -20.6929995,0 -24.054999,-0.214 -25.207999,-1.604 -4.953001,-5.968 -15.914001,-1.742 -15.914001,6.135 0,3.012 1.639,6.441 3.913,8.187 2.781,2.135 8.643001,1.527 11.927001,-1.237 l 2.994,-2.519 22.832999,0.269 22.833,0.269 v 12 12 H 1.2348526 -32.603148 l -2.412,-2.806 -2.413,-2.806 v -26.51 c 0,-16.156 0.399,-27.25599 1.023,-28.42099 1.62,-3.027 4.936,-4.332 12.717,-5.004 11.528001,-0.995 14.2600006,-4.869 14.2600006,-20.221 0,-5.925 0.4379999,-9.77 1.1999999,-10.532 2.2050001,-2.205 9.7100001,-1.454 12.982,1.3 3.36,2.827 6.6449995,3.158 10.6729995,1.075 2.723,-1.408 5.145,-5.255 5.145,-8.172 0,-2.964 -2.961,-7.144 -5.933,-8.375 -3.51,-1.454 -7.6769995,-0.689 -10.5669995,1.939 -1.399,1.271 -4.06799992,1.942 -8.8779999,2.231 -6.4199996,0.386 -7.1019996,0.658 -10.2499996,4.093 -3.363001,3.67 -3.372001,3.706 -3.372001,13.76 0,12.886 -0.547,13.936 -7.285,13.993 -9.672,0.081 -15.575,3.358 -18.834,10.456 -1.641,3.572 -1.839,6.97 -1.859,31.78999 -0.02,25.322 0.146,28.119 1.872,31.5 2.339,4.583 4.61,6.687 9.36,8.672 3.192,1.334 12.826,1.538 72.464,1.536 75.976008,-10e-4 72.889008,0.25 77.711008,-6.32 1.995,-2.718 2.082,-4.207 2.366,-40.625 l 0.294,-37.80399 -9.794,-9.002 c -5.387,-4.951 -18.795006,-17.081 -29.795006,-26.954 -23.273,-20.889 -23.254,-20.87 -21.84,-23.127 2.56,-4.086 4.571,-2.653 35.422,25.242 l 30.418006,27.504 12.55,0.044 c 12.886,0.045 14.95,-0.515 14.95,-4.059 0,-0.95 -10.166,-10.923 -22.985,-22.55 l -22.986,-20.847 -0.014,-20.177 -0.015,-20.178 -2.635,-2.072 c -2.313005,-1.82 -4.017005,-2.073 -13.944006,-2.073 -10.289,0 -11.546,0.203 -13.927,2.252 -1.765,1.518 -2.802,3.624 -3.183,6.468 l -0.566,4.218 -3.694,-3.219 c -2.032,-1.771 -9.049,-8.056 -15.594,-13.969 -13.940002,-12.59401 -14.849002,-12.86001 -22.218002,-6.5 m -10.039,40.95 c -1.802,1.802 -1.446,4.598 0.734,5.765 2.928,1.566 4.001,1.272 5.234,-1.435 1.893,-4.153 -2.766,-7.532 -5.968,-4.33 m -10.0939995,39.602 c -1.441,2.693 0.753,5.494 3.9499995,5.043 1.972,-0.278 2.444,-0.924 2.444,-3.345 0,-2.511 -0.437,-3.051 -2.683,-3.31 -1.8379995,-0.212 -3.0059995,0.295 -3.7109995,1.612 m -46.0660005,15.65 c -2.383,2.871 0.904,7.274 4.422,5.924 3.638,-1.396 2.453,-7.376 -1.462,-7.376 -0.965,0 -2.297,0.653 -2.96,1.452 m 44.5420005,21.864 c -3.563,2.606 0.431,8.425 4.1679995,6.072 2.385,-1.502 2.678,-3.818 0.729,-5.767 -1.9639995,-1.963 -2.5759995,-2.001 -4.8969995,-0.305 m 42.9890015,2.255 c -2.331,2.332 -2.262,20.59499 0.087,22.94399 2.267,2.268 21.881,1.835 23.365,-0.515 0.52,-0.825 0.953,-5.855 0.962,-11.179 0.02,-12.70099 -0.102,-12.82099 -12.985,-12.82099 -7.628,0 -10.213,0.355 -11.429,1.571 m 31.629,-0.371 c -0.785,0.785 -1.2,4.926 -1.2,11.96499 0,12.929 -0.092,12.835 12.500001,12.835 12.592005,0 12.500005,0.094 12.500005,-12.835 0,-7.03899 -0.415,-11.17999 -1.2,-11.96499 -0.775,-0.775 -4.778005,-1.2 -11.300005,-1.2 -6.522001,0 -10.525001,0.425 -11.300001,1.2 m -32,31.99999 c -1.502,1.502 -1.635,19.118 -0.165,21.866 0.927,1.731 2.183,1.934 11.965,1.934 13.117,0 13,0.113 13,-12.5 0,-12.592 0.094,-12.5 -12.835,-12.5 -7.039,0 -11.18,0.415 -11.965,1.2 m 32,0 c -1.799,1.799 -1.632,21.196 0.195,22.712 0.918,0.762 5.103,1.06 12.250001,0.873 l 10.855005,-0.285 0.284,-11.42 c 0.211,-8.463 -0.048,-11.63 -1,-12.234 -2.081,-1.321 -21.209006,-1.021 -22.584006,0.354 m -104.161002,1.728 c -1.307,2.442 -0.419,4.817 2.101,5.617 3.736001,1.185 6.463001,-3.542 3.660001,-6.345 -1.800001,-1.8 -4.598001,-1.447 -5.761001,0.728"
         stroke="none"
         fill="#342c44"
         fill-rule="evenodd"
         id="path2"
         sodipodi:nodetypes="ccccccssscccsscscccscsccsccccccccccssscccscscccccccccccsccsscssccccsccccscsccccscccscccccsccccscccccccssccsscccccccccsccssssscccsssccccccccccsc"
         style="fill:#000000" /><path
         d="m -53.821129,711.11334 v 9.16016 h -0.722656 q -0.351563,-2.63672 -1.269531,-4.19922 -0.898438,-1.5625 -2.578125,-2.48047 -1.679688,-0.91797 -3.476563,-0.91797 -2.03125,0 -3.359375,1.25 -1.328125,1.23047 -1.328125,2.8125 0,1.21094 0.839844,2.20703 1.210937,1.46485 5.761719,3.90625 3.710937,1.99219 5.058593,3.06641 1.367188,1.05469 2.089844,2.5 0.742188,1.44531 0.742188,3.02734 0,3.00782 -2.34375,5.19532 -2.324219,2.16796 -5.996094,2.16796 -1.152344,0 -2.167969,-0.17578 -0.605469,-0.0977 -2.519531,-0.70312 -1.894531,-0.625 -2.402344,-0.625 -0.488281,0 -0.78125,0.29297 -0.273437,0.29297 -0.410156,1.21093 h -0.722656 v -9.08203 h 0.722656 q 0.507812,2.85157 1.367187,4.27735 0.859375,1.40625 2.617188,2.34375 1.777344,0.9375 3.886719,0.9375 2.441406,0 3.847656,-1.28907 1.425781,-1.28906 1.425781,-3.04687 0,-0.97656 -0.546875,-1.97266 -0.527344,-0.99609 -1.660156,-1.85547 -0.761719,-0.58593 -4.160156,-2.48046 -3.398438,-1.91407 -4.84375,-3.04688 -1.425782,-1.13281 -2.167969,-2.5 -0.742188,-1.36719 -0.742188,-3.00781 0,-2.85156 2.1875,-4.90235 2.1875,-2.07031 5.566407,-2.07031 2.109375,0 4.472656,1.03516 1.09375,0.48828 1.542969,0.48828 0.507812,0 0.820312,-0.29297 0.332031,-0.3125 0.527344,-1.23047 z m 10.46875,12.48047 q 1.953125,-1.95312 2.304688,-2.24609 0.878906,-0.74219 1.894531,-1.15235 1.015625,-0.41015 2.011719,-0.41015 1.679687,0 2.890625,0.97656 1.210937,0.97656 1.621093,2.83203 2.011719,-2.34375 3.398438,-3.06641 1.386719,-0.74218 2.851562,-0.74218 1.425782,0 2.519532,0.74218 1.113281,0.72266 1.757812,2.38282 0.429688,1.13281 0.429688,3.55468 v 7.69532 q 0,1.67968 0.253906,2.30468 0.195312,0.42969 0.722656,0.74219 0.527344,0.29297 1.71875,0.29297 v 0.70313 h -8.828125 v -0.70313 h 0.371094 q 1.152344,0 1.796875,-0.44922 0.449219,-0.3125 0.644531,-0.99609 0.07813,-0.33203 0.07813,-1.89453 v -7.69532 q 0,-2.1875 -0.527344,-3.08593 -0.761718,-1.25 -2.441406,-1.25 -1.035156,0 -2.089844,0.52734 -1.035156,0.50781 -2.519531,1.91406 l -0.03906,0.21485 0.03906,0.83984 v 8.53516 q 0,1.83593 0.195313,2.28515 0.214843,0.44922 0.78125,0.76172 0.566406,0.29297 1.933593,0.29297 v 0.70313 h -9.042968 v -0.70313 q 1.484375,0 2.03125,-0.35156 0.566406,-0.35156 0.78125,-1.05469 0.09766,-0.33203 0.09766,-1.93359 v -7.69532 q 0,-2.1875 -0.644531,-3.14453 -0.859375,-1.25 -2.402344,-1.25 -1.054688,0 -2.089844,0.56641 -1.621094,0.85937 -2.5,1.93359 v 9.58985 q 0,1.75781 0.234375,2.28515 0.253906,0.52735 0.722656,0.80078 0.488282,0.25391 1.953125,0.25391 v 0.70313 h -8.847656 v -0.70313 q 1.230469,0 1.71875,-0.25391 0.488281,-0.27343 0.742188,-0.83984 0.253906,-0.58594 0.253906,-2.24609 v -6.83594 q 0,-2.94922 -0.175781,-3.80859 -0.136719,-0.64454 -0.429688,-0.87891 -0.292969,-0.25391 -0.800781,-0.25391 -0.546875,0 -1.308594,0.29297 l -0.292969,-0.70312 5.390625,-2.1875 h 0.839844 z m 35.9375002,12.03125 q -2.7539062,2.12891 -3.4570312,2.46094 -1.054688,0.48828 -2.246094,0.48828 -1.855469,0 -3.066406,-1.26953 -1.191406,-1.26953 -1.191406,-3.33985 0,-1.30859 0.585937,-2.26562 0.800781,-1.32813 2.773438,-2.5 1.992187,-1.17188 6.6015622,-2.85156 v -0.70313 q 0,-2.67578 -0.859375,-3.67187 -0.8398438,-0.9961 -2.4609372,-0.9961 -1.230469,0 -1.953125,0.66407 -0.742188,0.66406 -0.742188,1.52343 l 0.03906,1.13282 q 0,0.89843 -0.46875,1.38671 -0.449219,0.48829 -1.191407,0.48829 -0.722656,0 -1.191406,-0.50782 -0.449219,-0.50781 -0.449219,-1.38672 0,-1.67968 1.71875,-3.08593 1.71875,-1.40625 4.824219,-1.40625 2.3828127,0 3.9062502,0.80078 1.1523437,0.60547 1.6992187,1.89453 0.3515625,0.83984 0.3515625,3.4375 v 6.07422 q 0,2.55859 0.097656,3.14453 0.097656,0.56641 0.3125,0.76172 0.234375,0.19531 0.5273437,0.19531 0.3125,0 0.546875,-0.13672 0.4101563,-0.2539 1.5820313,-1.42578 v 1.09375 q -2.1875,2.92969 -4.1796875,2.92969 -0.9570313,0 -1.5234375,-0.66406 -0.5664063,-0.66407 -0.5859375,-2.26563 z m 0,-1.26953 v -6.81641 q -2.9492192,1.17188 -3.8085942,1.66016 -1.542968,0.85937 -2.207031,1.79687 -0.664062,0.9375 -0.664062,2.05079 0,1.40625 0.839843,2.34375 0.839844,0.91796 1.933594,0.91796 1.4843752,0 3.9062502,-1.95312 z M 5.4366837,719.78522 v 4.02343 q 2.2460937,-4.02343 4.6093753,-4.02343 1.074218,0 1.777343,0.66406 0.703125,0.64453 0.703125,1.50391 0,0.76171 -0.507812,1.28906 -0.507813,0.52734 -1.210938,0.52734 -0.683593,0 -1.5429683,-0.66406 -0.8398438,-0.68359 -1.25,-0.68359 -0.3515625,0 -0.7617188,0.39062 -0.8789062,0.80078 -1.8164062,2.63672 v 8.57422 q 0,1.48437 0.3710937,2.24609 0.2539063,0.52735 0.8984375,0.87891 0.6445313,0.35156 1.8554688,0.35156 v 0.70313 h -9.1601563 v -0.70313 q 1.3671875,0 2.03125,-0.42969 0.4882813,-0.3125 0.6835938,-0.99609 0.097656,-0.33203 0.097656,-1.89453 v -6.9336 q 0,-3.125 -0.1367187,-3.71093 -0.1171875,-0.60547 -0.46875,-0.87891 -0.3320313,-0.27344 -0.8398438,-0.27344 -0.60546875,0 -1.3671875,0.29297 l -0.1953125,-0.70312 5.4101563,-2.1875 z m 13.2812503,-5.35157 v 5.87891 h 4.179687 v 1.36719 h -4.179687 v 11.60156 q 0,1.73828 0.488281,2.34375 0.507812,0.60547 1.289062,0.60547 0.644532,0 1.25,-0.39063 0.605469,-0.41015 0.9375,-1.1914 h 0.761719 q -0.683594,1.91406 -1.933594,2.89062 -1.25,0.95703 -2.578125,0.95703 -0.898437,0 -1.757812,-0.48828 -0.859375,-0.50781 -1.269531,-1.42578 -0.410157,-0.9375 -0.410157,-2.87109 v -12.03125 h -2.832031 v -0.64453 q 1.074219,-0.42969 2.1875,-1.44532 1.132813,-1.03515 2.011719,-2.4414 0.449219,-0.74219 1.25,-2.71485 z m 22.890625,9.57032 h 12.304687 v -7.57813 q 0,-2.03125 -0.253906,-2.67578 -0.195313,-0.48828 -0.820313,-0.83984 -0.839843,-0.46875 -1.777343,-0.46875 h -0.9375 v -0.72266 h 11.328125 v 0.72266 h -0.9375 q -0.9375,0 -1.777344,0.44922 -0.625,0.3125 -0.859375,0.95703 -0.214844,0.625 -0.214844,2.57812 v 17.08985 q 0,2.01171 0.253906,2.65625 0.195313,0.48828 0.800782,0.83984 0.859375,0.46875 1.796875,0.46875 h 0.9375 v 0.72266 H 50.124184 v -0.72266 h 0.9375 q 1.621093,0 2.363281,-0.95703 0.488281,-0.625 0.488281,-3.00781 v -8.06641 H 41.608559 v 8.06641 q 0,2.01171 0.253906,2.65625 0.195312,0.48828 0.820312,0.83984 0.839844,0.46875 1.777344,0.46875 h 0.957031 v 0.72266 H 34.069496 v -0.72266 h 0.9375 q 1.640625,0 2.382813,-0.95703 0.46875,-0.625 0.46875,-3.00781 v -17.08985 q 0,-2.03125 -0.253907,-2.67578 -0.195312,-0.48828 -0.800781,-0.83984 -0.859375,-0.46875 -1.796875,-0.46875 h -0.9375 v -0.72266 h 11.347656 v 0.72266 h -0.957031 q -0.9375,0 -1.777344,0.44922 -0.605468,0.3125 -0.839843,0.95703 -0.234375,0.625 -0.234375,2.57812 z m 30.664062,-4.21875 q 4.0625,0 6.523438,3.08593 2.089843,2.63672 2.089843,6.05469 0,2.40235 -1.152343,4.86328 -1.152344,2.46094 -3.183594,3.71094 -2.011719,1.25 -4.492188,1.25 -4.042968,0 -6.425781,-3.22266 -2.011719,-2.71484 -2.011719,-6.09375 0,-2.46093 1.210938,-4.88281 1.230469,-2.4414 3.222656,-3.59375 1.992188,-1.17187 4.21875,-1.17187 z m -0.605469,1.26953 q -1.035156,0 -2.089843,0.625 -1.035157,0.60547 -1.679688,2.14844 -0.644531,1.54296 -0.644531,3.96484 0,3.90625 1.542969,6.73828 1.5625,2.83203 4.101562,2.83203 1.894531,0 3.125,-1.5625 1.230469,-1.5625 1.230469,-5.37109 0,-4.76563 -2.050781,-7.5 -1.386719,-1.875 -3.535157,-1.875 z m 17.167969,2.53906 q 1.953125,-1.95312 2.304688,-2.24609 0.878906,-0.74219 1.894531,-1.15235 1.015625,-0.41015 2.011719,-0.41015 1.679687,0 2.890625,0.97656 1.210937,0.97656 1.621093,2.83203 2.011723,-2.34375 3.398433,-3.06641 1.38672,-0.74218 2.85157,-0.74218 1.42578,0 2.51953,0.74218 1.11328,0.72266 1.75781,2.38282 0.42969,1.13281 0.42969,3.55468 v 7.69532 q 0,1.67968 0.2539,2.30468 0.19532,0.42969 0.72266,0.74219 0.52734,0.29297 1.71875,0.29297 v 0.70313 H 104.382 v -0.70313 h 0.37109 q 1.15234,0 1.79687,-0.44922 0.44922,-0.3125 0.64454,-0.99609 0.0781,-0.33203 0.0781,-1.89453 v -7.69532 q 0,-2.1875 -0.52734,-3.08593 -0.76172,-1.25 -2.44141,-1.25 -1.03516,0 -2.08984,0.52734 -1.03516,0.50781 -2.519534,1.91406 l -0.03906,0.21485 0.03906,0.83984 v 8.53516 q 0,1.83593 0.195313,2.28515 0.214841,0.44922 0.781251,0.76172 0.5664,0.29297 1.93359,0.29297 v 0.70313 h -9.042966 v -0.70313 q 1.484375,0 2.03125,-0.35156 0.566406,-0.35156 0.78125,-1.05469 0.09766,-0.33203 0.09766,-1.93359 v -7.69532 q 0,-2.1875 -0.644531,-3.14453 -0.859375,-1.25 -2.402344,-1.25 -1.054688,0 -2.089844,0.56641 -1.621094,0.85937 -2.5,1.93359 v 9.58985 q 0,1.75781 0.234375,2.28515 0.253906,0.52735 0.722656,0.80078 0.488282,0.25391 1.953125,0.25391 v 0.70313 h -8.847656 v -0.70313 q 1.230469,0 1.71875,-0.25391 0.488281,-0.27343 0.742188,-0.83984 0.253906,-0.58594 0.253906,-2.24609 v -6.83594 q 0,-2.94922 -0.175781,-3.80859 -0.136719,-0.64454 -0.429688,-0.87891 -0.292969,-0.25391 -0.800781,-0.25391 -0.546875,0 -1.308594,0.29297 l -0.292969,-0.70312 5.390625,-2.1875 h 0.839844 z m 30.351559,-13.16406 q 0.82032,0 1.38672,0.58594 0.58594,0.5664 0.58594,1.38671 0,0.82032 -0.58594,1.40625 -0.5664,0.58594 -1.38672,0.58594 -0.82031,0 -1.40625,-0.58594 -0.58593,-0.58593 -0.58593,-1.40625 0,-0.82031 0.5664,-1.38671 0.58594,-0.58594 1.42578,-0.58594 z m 1.6211,9.35547 v 14.375 q 0,1.67968 0.23437,2.24609 0.25391,0.54688 0.72266,0.82031 0.48828,0.27344 1.75781,0.27344 v 0.70313 h -8.69141 v -0.70313 q 1.3086,0 1.75782,-0.25391 0.44922,-0.2539 0.70312,-0.83984 0.27344,-0.58594 0.27344,-2.24609 v -6.89453 q 0,-2.91016 -0.17578,-3.76954 -0.13672,-0.625 -0.42969,-0.85937 -0.29297,-0.25391 -0.80078,-0.25391 -0.54688,0 -1.32813,0.29297 l -0.27343,-0.70312 5.39062,-2.1875 z m 7.94922,7.26562 q -0.0195,3.98438 1.93359,6.25 1.95312,2.26563 4.58984,2.26563 1.75782,0 3.04688,-0.95703 1.30859,-0.97657 2.1875,-3.32032 l 0.60547,0.39063 q -0.41016,2.67578 -2.38282,4.88281 -1.97265,2.1875 -4.9414,2.1875 -3.22266,0 -5.52735,-2.5 -2.28515,-2.51953 -2.28515,-6.75781 0,-4.58985 2.34375,-7.14844 2.36328,-2.57812 5.91797,-2.57812 3.00781,0 4.9414,1.99218 1.9336,1.97266 1.9336,5.29297 z m 0,-1.13281 h 8.28125 q -0.0977,-1.71875 -0.41016,-2.42188 -0.48828,-1.09375 -1.46484,-1.71875 -0.95704,-0.625 -2.01172,-0.625 -1.6211,0 -2.91016,1.26954 -1.26953,1.25 -1.48437,3.49609 z"
         id="text1"
         style="font-size:40px;line-height:1.25;font-family:'Times New Roman';-inkscape-font-specification:'Times New Roman, ';letter-spacing:0px;word-spacing:0px"
         aria-label="Smart Homie" /></g></g></svg>
